# xmcd
#
# Track frame offsets: 
#        150
#        20187
#        34735
#        57072
#        83005
#        110022
#        124210
#        144212
#        157132
#        188915
#        209487
#        222105
#
# Disc length: 3237 seconds
#
# Revision: 0
# Processed by: cddbd v1.5.2PL0 Copyright (c) Steve Scherf et al.
# Submitted via: ExactAudioCopyFreeDBPlugin 1.0
#
DISCID=ad0ca30c
DTITLE=Bill Perry - Love Scars
DYEAR=1996
DGENRE=Blues
TTITLE0=Love Scars
TTITLE1=Lost in the Blues
TTITLE2=Fade to Blue
TTITLE3=Down
TTITLE4=Darkness of Your Love
TTITLE5=Boogie Blues
TTITLE6=Settle Down, Fred
TTITLE7=Smokey Joe
TTITLE8=I'm Leaving You
TTITLE9=In My Lonely Room
TTITLE10=80 West
TTITLE11=Fade To Blue (Reprise)
EXTD=
EXTT0=
EXTT1=
EXTT2=
EXTT3=
EXTT4=
EXTT5=
EXTT6=
EXTT7=
EXTT8=
EXTT9=
EXTT10=
EXTT11=
PLAYORDER=
